HIERARCHY
ROOT Hips
{
	OFFSET 0.000000 103.266502 0.000000
	CHANNELS 6 Xposition Yposition Zposition Xrotation Yrotation Zrotation 
	JOINT Spine
	{
		OFFSET -0.002400 12.777504 0.315300
		CHANNELS 3 Xrotation Yrotation Zrotation
		JOINT Spine1
		{
			OFFSET -0.002067 5.816869 0.032633
			CHANNELS 3 Xrotation Yrotation Zrotation
			JOINT Spine1_split
			{
				OFFSET -0.002067 5.816869 0.032633
				CHANNELS 3 Xrotation Yrotation Zrotation
				JOINT Spine2
				{
					OFFSET -0.002067 5.816869 0.032633
					CHANNELS 3 Xrotation Yrotation Zrotation
					JOINT Neck
					{
						OFFSET -0.003700 21.199493 -0.826900
						CHANNELS 3 Xrotation Yrotation Zrotation
						JOINT Head
						{
							OFFSET 0.000000 20.442200 4.834800
							CHANNELS 3 Xrotation Yrotation Zrotation
							JOINT HeadTop_End
							{
								OFFSET 0.000000 34.668396 4.968400
								CHANNELS 3 Xrotation Yrotation Zrotation
								End Site
								{
									OFFSET 0.000000 0.000000 0.000000
								}
							}
						}
					}
					JOINT LeftShoulder
					{
						OFFSET 3.288150 8.794197 -1.372250
						CHANNELS 3 Xrotation Yrotation Zrotation
						JOINT LeftShoulder_split
						{
							OFFSET 3.288150 8.794197 -1.372250
							CHANNELS 3 Xrotation Yrotation Zrotation
							JOINT LeftArm
							{
								OFFSET 11.953299 -2.279007 -0.146200
								CHANNELS 3 Xrotation Yrotation Zrotation
								JOINT LeftForeArm
								{
									OFFSET 18.448900 0.000000 0.000000
									CHANNELS 3 Xrotation Yrotation Zrotation
									JOINT LeftHand
									{
										OFFSET 29.527798 0.000000 0.000000
										CHANNELS 3 Xrotation Yrotation Zrotation
										JOINT LeftHandThumb1
										{
											OFFSET 10.739754 -2.369614 9.225399
											CHANNELS 3 Xrotation Yrotation Zrotation
											JOINT LeftHandThumb2
											{
												OFFSET 4.926170 -2.844131 2.844125
												CHANNELS 3 Xrotation Yrotation Zrotation
												JOINT LeftHandThumb3
												{
													OFFSET 4.614891 -2.664413 2.664409
													CHANNELS 3 Xrotation Yrotation Zrotation
													JOINT LeftHandThumb4
													{
														OFFSET 4.432465 -2.559082 2.559083
														CHANNELS 3 Xrotation Yrotation Zrotation
														End Site
														{
															OFFSET 0.000000 0.000000 0.000000
														}
													}
												}
											}
										}
										JOINT LeftHandIndex1
										{
											OFFSET 26.467674 0.187653 6.405298
											CHANNELS 3 Xrotation Yrotation Zrotation
											JOINT LeftHandIndex2
											{
												OFFSET 8.792900 0.000000 0.000000
												CHANNELS 3 Xrotation Yrotation Zrotation
												JOINT LeftHandIndex3
												{
													OFFSET 10.075203 0.000000 0.000000
													CHANNELS 3 Xrotation Yrotation Zrotation
													End Site
													{
														OFFSET 0.000000 0.000000 0.000000
													}
												}
											}
										}
										JOINT LeftHandMiddle1
										{
											OFFSET 25.764404 0.000000 0.000000
											CHANNELS 3 Xrotation Yrotation Zrotation
											JOINT LeftHandMiddle2
											{
												OFFSET 9.393974 0.000000 0.000000
												CHANNELS 3 Xrotation Yrotation Zrotation
												JOINT LeftHandMiddle3
												{
													OFFSET 10.771950 0.000000 0.000000
													CHANNELS 3 Xrotation Yrotation Zrotation
													End Site
													{
														OFFSET 0.000000 0.000000 0.000000
													}
												}
											}
										}
										JOINT LeftHandRing1
										{
											OFFSET 24.660927 0.144547 -6.225808
											CHANNELS 3 Xrotation Yrotation Zrotation
											JOINT LeftHandRing2
											{
												OFFSET 9.393799 0.000000 0.000000
												CHANNELS 3 Xrotation Yrotation Zrotation
												JOINT LeftHandRing3
												{
													OFFSET 9.928497 0.000000 0.000000
													CHANNELS 3 Xrotation Yrotation Zrotation
													End Site
													{
														OFFSET 0.000000 0.000000 0.000000
													}
												}
											}
										}
										JOINT LeftHandPinky1
										{
											OFFSET 23.655350 0.125290 -12.815412
											CHANNELS 3 Xrotation Yrotation Zrotation
											JOINT LeftHandPinky2
											{
												OFFSET 8.425102 0.000000 0.000000
												CHANNELS 3 Xrotation Yrotation Zrotation
												JOINT LeftHandPinky3
												{
													OFFSET 8.147003 0.000000 0.000000
													CHANNELS 3 Xrotation Yrotation Zrotation
													End Site
													{
														OFFSET 0.000000 0.000000 0.000000
													}
												}
											}
										}
									}
								}
							}
						}
					}
					JOINT RightShoulder
					{
						OFFSET -3.249400 8.794197 -1.372250
						CHANNELS 3 Xrotation Yrotation Zrotation
						JOINT RightShoulder_split
						{
							OFFSET -3.249400 8.794197 -1.372250
							CHANNELS 3 Xrotation Yrotation Zrotation
							JOINT RightArm
							{
								OFFSET -11.953299 -2.279007 -0.146200
								CHANNELS 3 Xrotation Yrotation Zrotation
								JOINT RightForeArm
								{
									OFFSET -18.448900 0.000000 0.000000
									CHANNELS 3 Xrotation Yrotation Zrotation
									JOINT RightHand
									{
										OFFSET -29.527802 0.000000 0.000000
										CHANNELS 3 Xrotation Yrotation Zrotation
										JOINT RightHandThumb1
										{
											OFFSET -10.739754 -2.369614 9.225399
											CHANNELS 3 Xrotation Yrotation Zrotation
											JOINT RightHandThumb2
											{
												OFFSET -4.926170 -2.844131 2.844125
												CHANNELS 3 Xrotation Yrotation Zrotation
												JOINT RightHandThumb3
												{
													OFFSET -4.614891 -2.664413 2.664409
													CHANNELS 3 Xrotation Yrotation Zrotation
													JOINT RightHandThumb4
													{
														OFFSET -4.432465 -2.559082 2.559083
														CHANNELS 3 Xrotation Yrotation Zrotation
														End Site
														{
															OFFSET 0.000000 0.000000 0.000000
														}
													}
												}
											}
										}
										JOINT RightHandIndex1
										{
											OFFSET -26.467674 0.187653 6.405298
											CHANNELS 3 Xrotation Yrotation Zrotation
											JOINT RightHandIndex2
											{
												OFFSET -8.792900 0.000000 0.000000
												CHANNELS 3 Xrotation Yrotation Zrotation
												JOINT RightHandIndex3
												{
													OFFSET -10.075203 0.000000 0.000000
													CHANNELS 3 Xrotation Yrotation Zrotation
													End Site
													{
														OFFSET 0.000000 0.000000 0.000000
													}
												}
											}
										}
										JOINT RightHandMiddle1
										{
											OFFSET -25.764404 0.000000 0.000000
											CHANNELS 3 Xrotation Yrotation Zrotation
											JOINT RightHandMiddle2
											{
												OFFSET -9.393974 0.000000 0.000000
												CHANNELS 3 Xrotation Yrotation Zrotation
												JOINT RightHandMiddle3
												{
													OFFSET -10.771950 0.000000 0.000000
													CHANNELS 3 Xrotation Yrotation Zrotation
													End Site
													{
														OFFSET 0.000000 0.000000 0.000000
													}
												}
											}
										}
										JOINT RightHandRing1
										{
											OFFSET -24.660927 0.144547 -6.225808
											CHANNELS 3 Xrotation Yrotation Zrotation
											JOINT RightHandRing2
											{
												OFFSET -9.393799 0.000000 0.000000
												CHANNELS 3 Xrotation Yrotation Zrotation
												JOINT RightHandRing3
												{
													OFFSET -9.928497 0.000000 0.000000
													CHANNELS 3 Xrotation Yrotation Zrotation
													End Site
													{
														OFFSET 0.000000 0.000000 0.000000
													}
												}
											}
										}
										JOINT RightHandPinky1
										{
											OFFSET -23.655350 0.125290 -12.815412
											CHANNELS 3 Xrotation Yrotation Zrotation
											JOINT RightHandPinky2
											{
												OFFSET -8.425102 0.000000 0.000000
												CHANNELS 3 Xrotation Yrotation Zrotation
												JOINT RightHandPinky3
												{
													OFFSET -8.147003 0.000000 0.000000
													CHANNELS 3 Xrotation Yrotation Zrotation
													End Site
													{
														OFFSET 0.000000 0.000000 0.000000
													}
												}
											}
										}
									}
								}
							}
						}
					}
				}
			}
		}
	}
	JOINT LeftUpLeg
	{
		OFFSET 11.394100 -6.187798 -0.413800
		CHANNELS 3 Xrotation Yrotation Zrotation
		JOINT LeftLeg
		{
			OFFSET 0.430247 -32.302673 3.732800
			CHANNELS 3 Xrotation Yrotation Zrotation
			JOINT LeftFoot
			{
				OFFSET -0.430247 -48.264931 -6.423300
				CHANNELS 3 Xrotation Yrotation Zrotation
				JOINT LeftToeBase
				{
					OFFSET 4.230900 -16.068199 23.438400
					CHANNELS 3 Xrotation Yrotation Zrotation
					JOINT LeftToe_End
					{
						OFFSET 4.510700 0.695400 19.974600
						CHANNELS 3 Xrotation Yrotation Zrotation
						End Site
						{
							OFFSET 0.000000 0.000000 0.000000
						}
					}
				}
			}
		}
	}
	JOINT RightUpLeg
	{
		OFFSET -11.333700 -6.187798 -0.413800
		CHANNELS 3 Xrotation Yrotation Zrotation
		JOINT RightLeg
		{
			OFFSET -0.430392 -32.302628 3.733000
			CHANNELS 3 Xrotation Yrotation Zrotation
			JOINT RightFoot
			{
				OFFSET 0.430392 -48.264973 -6.423500
				CHANNELS 3 Xrotation Yrotation Zrotation
				JOINT RightToeBase
				{
					OFFSET -4.230900 -16.068199 23.438400
					CHANNELS 3 Xrotation Yrotation Zrotation
					JOINT RightToe_End
					{
						OFFSET -4.510700 0.695400 19.974600
						CHANNELS 3 Xrotation Yrotation Zrotation
						End Site
						{
							OFFSET 0.000000 0.000000 0.000000
						}
					}
				}
			}
		}
	}
}
MOTION
Frames: 5
Frame Time: 0.016667
53.501148 94.567307 27.444223 -10.167376 -57.621375 -10.793950 9.207323 8.885718 -0.278111 2.556082 17.404587 -2.385635 0.000000 0.000000 0.000000 3.099508 13.576352 -1.746532 -0.834491 -4.108944 0.255297 1.539944 -45.055934 4.111458 0.000000 0.000000 -0.000000 -6.510679 -24.283956 -29.301501 0.000000 0.000000 0.000000 -16.491698 27.629845 -48.402784 0.000013 -37.042346 0.000011 20.414563 12.547358 -11.679921 -0.367418 1.022221 8.846096 11.332612 25.661876 5.956436 -1.978608 11.931652 20.214300 0.000002 0.000001 0.000002 -3.147026 -1.008768 -32.685433 0.795793 2.949877 -30.188890 -0.000000 -0.000002 -0.000000 1.080595 5.663168 -36.570011 0.703193 2.784826 -28.337845 -0.000000 0.000002 0.000004 2.638190 7.725028 -36.880460 0.871336 3.075882 -31.625883 -0.000003 0.000002 -0.000002 4.773557 10.152484 -39.332071 0.944667 3.191722 -32.967298 0.000001 -0.000000 0.000001 16.094134 -29.062592 21.606105 0.000000 0.000000 0.000000 17.231235 -22.622058 41.644811 0.000003 113.407512 0.000001 50.459027 7.307187 26.799243 11.446978 0.444914 -2.639160 0.868420 -5.095141 -5.270576 -19.194718 12.675459 -8.491937 0.000001 0.000001 -0.000000 -1.101646 2.714052 12.099561 0.231089 -1.450233 18.106195 -0.000002 -0.000000 -0.000000 -0.590506 -0.253853 13.946829 0.529564 -2.158733 27.563003 0.000001 -0.000000 -0.000000 0.152619 -3.304647 16.160607 1.052575 -2.950888 39.255901 0.000001 0.000001 -0.000002 1.396629 -6.662543 20.820592 0.310321 -1.673165 21.012862 -0.000002 0.000001 -0.000001 -17.934374 12.812379 6.434861 43.073242 -9.299027 1.404674 -21.230058 14.762477 3.394658 -3.379292 0.000005 0.000001 -0.000000 0.000002 0.000000 -22.948360 18.211982 -12.537994 50.361768 -14.090789 -10.343101 23.200020 -1.643639 28.038205 -20.707402 -1.332063 14.151013 -0.000000 -0.000000 0.000000 
53.493164 94.359413 28.567411 -10.762454 -56.863049 -11.130832 9.664265 7.943802 -0.491630 2.662957 17.145949 -2.401211 0.000000 0.000000 0.000000 3.209017 13.582539 -1.840705 -0.835035 -4.107088 0.327522 1.616709 -45.330149 4.399507 0.000001 -0.000002 0.000000 -6.690963 -24.917018 -29.325752 0.000000 0.000000 0.000000 -17.150499 26.242815 -47.937751 0.000002 -37.261400 -0.000003 18.651150 12.125987 -10.193064 -0.303179 1.156295 8.901292 11.336629 25.654617 5.977728 -1.941916 11.914822 20.241281 -0.000004 0.000002 0.000004 -3.164695 -0.956363 -33.003587 0.813131 2.979433 -30.524044 -0.000000 -0.000000 -0.000001 1.100515 5.692194 -36.934644 0.718671 2.813296 -28.654819 0.000002 -0.000000 -0.000001 2.669897 7.741938 -37.250974 0.890066 3.106050 -31.973219 0.000003 0.000001 0.000001 4.816360 10.146126 -39.734093 0.963087 3.219895 -33.296619 -0.000002 -0.000001 0.000001 16.288802 -29.166721 21.993785 0.000000 0.000000 0.000000 17.892140 -24.268782 42.118717 0.000064 113.885468 -0.000077 41.063835 5.287843 26.351223 11.448281 0.442801 -2.640241 0.869862 -5.099406 -5.271817 -19.191626 12.672133 -8.493066 -0.000001 0.000001 -0.000002 -1.117754 2.690264 12.294183 0.236137 -1.465568 18.304388 0.000001 0.000000 -0.000001 -0.596865 -0.274204 14.142348 0.537008 -2.172943 27.760226 -0.000003 0.000000 0.000000 0.155901 -3.319401 16.357171 1.061192 -2.961377 39.422933 -0.000001 0.000001 0.000002 1.410548 -6.670711 21.018333 0.316095 -1.688123 21.209788 0.000001 0.000000 -0.000000 -17.075756 12.875898 5.330620 43.479888 -9.810500 1.696130 -22.068702 14.975526 4.300259 -3.382239 0.000005 -0.000002 0.000000 -0.000001 -0.000000 -25.448394 19.692486 -10.314294 54.161477 -13.026034 -10.401217 23.244544 0.652994 25.471459 -22.559867 -3.591893 16.483255 0.000001 0.000001 -0.000000 
53.486984 94.287201 29.710995 -11.217984 -55.881838 -11.471713 10.085582 6.889926 -0.493006 2.778479 16.848636 -2.408986 0.000000 0.000000 0.000000 3.327777 13.548344 -1.925067 -0.836518 -4.091358 0.390946 1.663301 -45.506593 4.655200 0.000000 0.000001 0.000000 -6.858136 -25.585236 -29.281240 0.000000 0.000000 0.000000 -17.849559 24.629997 -47.582031 0.000001 -37.102387 -0.000011 17.190212 11.684773 -8.623606 -0.239673 1.289016 8.955649 11.340593 25.647461 5.998810 -1.905599 11.898200 20.267972 0.000001 -0.000001 0.000002 -3.181884 -0.904411 -33.318428 0.830461 3.008592 -30.855728 0.000001 0.000001 -0.000000 1.120391 5.720796 -37.295538 0.734150 2.841400 -28.968526 -0.000002 0.000001 -0.000001 2.701353 7.758508 -37.617690 0.908764 3.135770 -32.316938 -0.000000 0.000002 0.000003 4.858560 10.139631 -40.131934 0.981474 3.247675 -33.622535 -0.000001 -0.000000 0.000001 16.428051 -29.286137 22.283885 0.000000 0.000000 0.000000 18.343093 -25.660560 42.553052 0.000003 114.043955 0.000003 34.092527 4.326349 26.246908 11.449749 0.440217 -2.641562 0.872415 -5.108714 -5.273694 -19.187132 12.663205 -8.495791 -0.000002 0.000001 -0.000001 -1.093841 2.717390 12.021018 0.229014 -1.443889 18.024087 0.000000 -0.000000 -0.000000 -0.586990 -0.249513 13.867921 0.526563 -2.152981 27.483378 0.000001 -0.000000 0.000000 0.150491 -3.295857 16.081650 1.039534 -2.934857 39.001538 0.000001 -0.000001 -0.000001 1.388033 -6.651368 20.741466 0.308004 -1.667122 20.933181 -0.000002 0.000000 -0.000000 -16.075076 12.903980 4.414629 43.525152 -10.032931 1.956303 -22.684057 14.648872 5.052972 -3.374963 -0.000002 0.000001 -0.000000 -0.000000 0.000000 -27.708076 20.589805 -7.862670 57.317274 -11.666011 -10.080403 22.221647 3.778518 22.559505 -26.153675 -6.069735 16.119800 0.000002 0.000001 -0.000000 
53.466183 94.322502 30.868015 -11.429400 -54.636640 -11.703124 10.423453 5.668826 -0.324187 2.886333 16.500540 -2.402981 0.000000 0.000000 0.000000 3.439227 13.460941 -1.993052 -0.825261 -4.058133 0.451980 1.734944 -45.565220 4.903151 0.000001 0.000000 0.000000 -7.018223 -26.326409 -29.169289 0.000000 0.000000 0.000000 -18.434949 23.003968 -47.374008 0.000004 -36.923272 0.000018 16.093150 11.349606 -7.118671 -0.177015 1.420186 9.009164 11.344518 25.640344 6.019595 -1.869744 11.881835 20.294367 -0.000003 0.000000 0.000000 -3.198560 -0.852996 -33.629335 0.847735 3.037283 -31.183324 -0.000001 0.000001 0.000001 1.140221 5.748942 -37.651985 0.749585 2.869066 -29.278306 0.000004 0.000002 -0.000003 2.732500 7.774677 -37.979844 0.927432 3.165046 -32.656422 0.000003 -0.000001 0.000001 4.900116 10.132996 -40.524865 0.999778 3.275000 -33.944404 0.000001 0.000000 0.000001 16.511892 -29.414695 22.476720 0.000000 0.000000 0.000000 18.832088 -26.862726 43.040522 0.000022 114.021341 -0.000046 28.272818 3.883405 26.345220 11.451384 0.436213 -2.643290 0.877845 -5.126600 -5.276872 -19.179929 12.645113 -8.501208 0.000001 0.000001 0.000001 -1.053553 2.761292 11.566187 0.217396 -1.407674 17.556976 -0.000000 -0.000000 -0.000000 -0.570155 -0.209049 13.411045 0.509375 -2.119639 27.022407 -0.000001 0.000001 0.000000 0.142052 -3.257690 15.622888 1.001902 -2.887834 38.260729 0.000001 0.000000 0.000001 1.350203 -6.617246 20.280703 0.294742 -1.632053 20.472678 -0.000002 0.000000 -0.000001 -15.039224 12.888209 3.745359 43.285282 -10.027614 2.123815 -23.102070 13.749790 5.668573 -3.339839 0.000025 0.000001 0.000000 -0.000003 0.000000 -29.748503 20.912586 -5.366369 59.735277 -10.371259 -9.494440 20.959112 7.573039 19.631777 -30.913252 -7.097139 13.788606 -0.000000 -0.000001 0.000000 
53.421066 94.424896 32.031967 -11.348095 -53.134275 -11.746891 10.654495 4.265624 -0.048526 2.977885 16.101298 -2.382549 0.000000 0.000000 0.000000 3.534444 13.319121 -2.043647 -0.797120 -4.009263 0.517362 1.875870 -45.514762 5.151919 -0.000000 0.000001 -0.000000 -7.175188 -27.162807 -28.995198 0.000000 0.000000 0.000000 -18.803849 21.533237 -47.316098 -0.000002 -37.046734 0.000006 15.372647 11.174119 -5.843559 -0.115341 1.549514 9.061708 11.348382 25.633352 6.040111 -1.834398 11.865740 20.320380 -0.000004 0.000004 -0.000000 -3.214724 -0.802283 -33.935703 0.864907 3.065457 -31.506180 -0.000000 0.000003 0.000004 1.159905 5.776566 -38.003255 0.764931 2.896254 -29.583650 -0.000001 -0.000000 0.000000 2.763274 7.790457 -38.336762 0.945992 3.193755 -32.991006 0.000001 0.000003 0.000001 4.940933 10.126288 -40.912017 1.017982 3.301823 -34.261660 -0.000000 0.000002 -0.000001 16.548155 -29.518011 22.591564 0.000000 0.000000 0.000000 19.288140 -27.835953 43.500440 0.000068 113.869096 -0.000076 23.411658 3.720030 26.828905 11.453140 0.430341 -2.645549 0.886585 -5.151513 -5.281999 -19.170439 12.619813 -8.508747 -0.000000 0.000002 -0.000001 -0.996932 2.822253 10.932548 0.201695 -1.357069 16.906287 -0.000003 0.000002 -0.000001 -0.546262 -0.152609 12.774599 0.485882 -2.072972 26.380274 0.000002 0.000001 0.000000 0.130987 -3.204947 14.983816 0.950511 -2.821520 37.228841 0.000000 -0.000002 -0.000001 1.298061 -6.569179 19.638937 0.276751 -1.583036 19.831154 -0.000000 0.000000 -0.000000 -14.049306 12.829931 3.296254 42.850923 -10.038766 2.170670 -23.385989 12.498855 6.240252 -3.268453 0.000001 -0.000001 -0.000000 -0.000001 -0.000000 -31.563076 20.762144 -2.992781 61.336499 -9.412328 -8.751322 20.036995 11.695450 16.963331 -36.059567 -6.290499 10.143681 0.000000 0.000001 -0.000000 
